<svg xmlns="http://www.w3.org/2000/svg" viewBox="0 0 500 500"><defs><style>.a{fill:#0295a5;}.b{fill:#175889;}</style></defs><title>od-logo-colour</title><path class="a" d="M266.61,259.15c0-33.47.11-66.93-.11-100.39,0-5.5.78-7.82,7.21-7.75,32,.38,63.91.05,95.86.2,55.5.27,101.1,41,107.48,95.74C483.47,302,447.27,352.69,392.63,365a108.2,108.2,0,0,1-24,2.34c-31.7,0-63.41-.16-95.11.14-5.77.05-7.12-1.65-7.07-7.2C266.74,326.58,266.61,292.86,266.61,259.15Zm61.49-.42c0,17.11.1,34.22-.07,51.33,0,3.95.6,6,5.26,5.79,9.79-.39,19.64.17,29.42-.4,29.8-1.74,52.44-25.34,53.34-55.17.85-28.42-20.86-53.06-49.93-56.78-10.29-1.32-20.62-.18-30.9-.83-5.53-.35-7.41,1.15-7.26,7C328.37,226,328.1,242.38,328.1,258.73Z"/><path class="b" d="M240.91,251c-.11,66.29-44,113.06-102.06,117.41C83,372.64,32.45,332.23,23.53,276.24,16.63,233,37.38,188.46,74.71,165.83c4.71-2.86,7.06-2.55,10,2.34,6.58,11,13.67,21.68,20.9,32.25,3.11,4.55,2.75,6.62-2.32,9.67-20.91,12.57-31,31.59-28.19,55.76,2.79,23.76,16.49,40.08,39.38,47.77,27.23,9.14,57.1-4.36,69.12-30.79S186,225,161.05,210.77c-6.11-3.47-6.1-5.76-2.58-11,7.12-10.64,13.81-21.6,20.15-32.73,2.63-4.61,4.85-4.27,8.71-1.85C222.27,187,239.87,218.66,240.91,251Z"/><path class="b" d="M115.07,181.4c0-14.82.12-29.64-.08-44.45-.06-4.11,1-5.87,5.41-5.69,7.52.32,15.07.27,22.59,0,4.08-.14,5.68.88,5.65,5.37q-.28,44.44,0,88.89c.05,5-1.79,5.86-6.11,5.68a192.68,192.68,0,0,0-21.09,0c-5.6.38-6.6-1.93-6.5-6.93C115.26,210,115.07,195.71,115.07,181.4Z"/></svg>